<?xml version="1.0" standalone="no"?>
<!DOCTYPE svg PUBLIC "-//W3C//DTD SVG 20010904//EN"
 "http://www.w3.org/TR/2001/REC-SVG-20010904/DTD/svg10.dtd">
<svg version="1.0" xmlns="http://www.w3.org/2000/svg"
 width="150.000000pt" height="150.000000pt" viewBox="0 0 150.000000 150.000000"
 preserveAspectRatio="xMidYMid meet">

<g transform="translate(0.000000,150.000000) scale(0.100000,-0.100000)"
fill="#000000" stroke="none">
<path d="M605 1405 c-252 -55 -459 -251 -522 -495 -22 -86 -21 -244 2 -330 48
-184 186 -352 356 -433 52 -25 119 -51 149 -58 78 -19 260 -17 339 4 317 85
526 369 508 691 -10 177 -74 316 -204 443 -86 85 -215 154 -328 178 -86 18
-219 18 -300 0z m0 -388 c158 -70 177 -264 39 -392 l-43 -40 37 -63 36 -62
257 0 c291 0 287 1 283 -71 l-2 -44 -294 -3 c-281 -2 -295 -1 -312 17 -10 11
-58 89 -106 173 l-89 153 72 6 c89 7 101 12 128 56 30 48 22 108 -21 146 -30
27 -33 27 -161 27 -72 0 -139 4 -149 10 -16 9 -70 89 -70 105 0 4 80 5 178 3
141 -3 185 -7 217 -21z m608 2 c7 -28 -3 -82 -17 -91 -14 -10 -378 -10 -393 0
-15 10 -83 95 -83 105 0 4 110 7 244 7 241 0 244 0 249 -21z m-93 -278 c0 -23
-40 -99 -55 -105 -26 -10 -295 -7 -295 3 0 20 39 99 52 104 23 10 298 7 298
-2z"/>
</g>
</svg>
